
<svg viewBox="0 0 47.5 42.84">
  <path class="cls-1" d="M23.75,3.86c.86,0,1.71.42,2.2,1.27l17.34,30.03c.98,1.7-.24,3.82-2.2,3.82H6.41c-1.96,0-3.18-2.12-2.2-3.82L21.54,5.13c.49-.85,1.35-1.27,2.2-1.27M23.75,0c-1.09,0-2.16.28-3.11.8-1.01.56-1.85,1.39-2.44,2.4L.86,33.23C.28,34.25-.02,35.39,0,36.54c.02,1.08.32,2.15.86,3.09.54.94,1.32,1.74,2.25,2.29.99.59,2.13.91,3.3.91h34.68c1.17,0,2.31-.31,3.3-.91.93-.56,1.71-1.35,2.25-2.29s.84-2.01.86-3.09c.02-1.15-.28-2.3-.86-3.31L29.29,3.2c-.58-1.01-1.43-1.84-2.44-2.4-.95-.52-2.02-.8-3.11-.8h0Z"/>
  <path class="cls-1" d="M23.92,32.99c-.75,0-1.39-.63-1.39-1.39s.63-1.39,1.39-1.39,1.39.63,1.39,1.39-.63,1.39-1.39,1.39ZM24.72,27.3h-1.61l-.44-11.2h2.48l-.44,11.2Z"/>
</svg>